<svg width="15" height="4" viewBox="0 0 15 4" fill="none" xmlns="http://www.w3.org/2000/svg">
<path d="M1.83057 0.443359C2.21794 0.443359 2.54443 0.578939 2.81006 0.850098C3.08122 1.12126 3.2168 1.44775 3.2168 1.82959C3.2168 2.21143 3.08122 2.53792 2.81006 2.80908C2.5389 3.07471 2.2124 3.20752 1.83057 3.20752C1.44873 3.20752 1.12223 3.07471 0.851074 2.80908C0.585449 2.53792 0.452637 2.21143 0.452637 1.82959C0.452637 1.44775 0.585449 1.12126 0.851074 0.850098C1.12223 0.578939 1.44873 0.443359 1.83057 0.443359ZM7.5 0.45166C7.88184 0.45166 8.20557 0.58724 8.47119 0.858398C8.74235 1.12402 8.87793 1.44775 8.87793 1.82959C8.87793 2.21143 8.74235 2.53792 8.47119 2.80908C8.20557 3.07471 7.88184 3.20752 7.5 3.20752C7.11816 3.20752 6.79167 3.07471 6.52051 2.80908C6.25488 2.53792 6.12207 2.21143 6.12207 1.82959C6.12207 1.44775 6.25488 1.12402 6.52051 0.858398C6.79167 0.58724 7.11816 0.45166 7.5 0.45166ZM13.1694 0.468262C13.5568 0.468262 13.8833 0.603841 14.1489 0.875C14.4146 1.14062 14.5474 1.46436 14.5474 1.84619C14.5474 2.22803 14.4118 2.55452 14.1406 2.82568C13.875 3.09131 13.5513 3.22412 13.1694 3.22412C12.7876 3.22412 12.4611 3.09131 12.1899 2.82568C11.9243 2.55452 11.7915 2.22803 11.7915 1.84619C11.7915 1.46436 11.9243 1.14062 12.1899 0.875C12.4611 0.603841 12.7876 0.468262 13.1694 0.468262Z" fill="#536471"/>
</svg>
