<svg width="23" height="22" viewBox="0 0 23 22" fill="none" xmlns="http://www.w3.org/2000/svg">
<g clip-path="url(#clip0_35_532)">
<path d="M21.5849 5.88484C21.476 5.4498 21.2542 5.05119 20.942 4.72929C20.6297 4.40739 20.2381 4.17359 19.8065 4.0515C18.2299 3.6665 11.9232 3.6665 11.9232 3.6665C11.9232 3.6665 5.61655 3.6665 4.03988 4.08817C3.60836 4.21026 3.21669 4.44406 2.90445 4.76596C2.5922 5.08786 2.37044 5.48646 2.26155 5.9215C1.97299 7.5216 1.83185 9.14479 1.83988 10.7707C1.82959 12.4088 1.97075 14.0444 2.26155 15.6565C2.38159 16.078 2.60833 16.4615 2.91984 16.7698C3.23136 17.0781 3.61713 17.3008 4.03988 17.4165C5.61655 17.8382 11.9232 17.8382 11.9232 17.8382C11.9232 17.8382 18.2299 17.8382 19.8065 17.4165C20.2381 17.2944 20.6297 17.0606 20.942 16.7387C21.2542 16.4168 21.476 16.0182 21.5849 15.5832C21.8712 13.9951 22.0123 12.3843 22.0065 10.7707C22.0168 9.13255 21.8757 7.49698 21.5849 5.88484Z" fill="#07262C" stroke="#07262C" stroke-width="2" stroke-linecap="round" stroke-linejoin="round"/>
<path d="M9.86084 12.0493C9.86084 12.8163 10.6885 13.2977 11.3552 12.9186L13.6031 11.6402C14.2774 11.2568 14.2774 10.2851 13.6032 9.90167L11.3552 8.62327C10.6885 8.24415 9.86084 8.72562 9.86084 9.49253V12.0493Z" fill="white"/>
</g>
<defs>
<clipPath id="clip0_35_532">
<rect width="22" height="22" fill="white" transform="translate(0.92334)"/>
</clipPath>
</defs>
</svg>
